<svg width="29" height="36" viewBox="0 0 29 36" fill="none" xmlns="http://www.w3.org/2000/svg">
<path d="M11.9186 0.736119L1.99511 7.24617C0.748167 8.06153 0 9.44186 0 10.9185V25.0835C0 26.5602 0.748167 27.9341 1.99511 28.7559L11.9186 35.2616C13.4215 36.2482 15.3797 36.2482 16.8847 35.2616L26.767 28.7559C28.0075 27.9362 28.7557 26.5602 28.7557 25.0899V10.9185C28.7557 9.44186 28.0075 8.06795 26.767 7.25259L16.8782 0.742539C15.3754 -0.244026 13.4171 -0.248307 11.9121 0.742539L11.9186 0.736119ZM22.4667 25.9995L16.759 29.5177C15.7224 30.1555 14.3822 29.4236 14.3822 28.2187V17.9957L7.28433 23.2367C6.26075 23.9921 4.79911 23.273 4.79911 22.0083V12.6477C4.79911 11.5669 5.36295 10.559 6.29545 9.98544L12.0032 6.46719C13.0398 5.82945 14.38 6.56135 14.38 7.7662V17.9892L21.4778 12.7482C22.5014 11.9928 23.963 12.7119 23.963 13.9766V23.3394C23.963 24.4201 23.3992 25.4281 22.4645 26.0016L22.4667 25.9995Z" fill="url(#paint0_linear_194_424)"/>
<defs>
<linearGradient id="paint0_linear_194_424" x1="7.80697" y1="-2.22144" x2="20.7061" y2="38.5476" gradientUnits="userSpaceOnUse">
<stop stop-color="#BE97FC"/>
<stop offset="1" stop-color="#4935C4"/>
</linearGradient>
</defs>
</svg>
