<svg width="150" height="36" viewBox="0 0 150 36" fill="none" xmlns="http://www.w3.org/2000/svg">
<g clip-path="url(#clip0_194_423)">
<path d="M11.9186 0.736119L1.99511 7.24617C0.748167 8.06153 0 9.44186 0 10.9185V25.0835C0 26.5602 0.748167 27.9341 1.99511 28.7559L11.9186 35.2616C13.4215 36.2482 15.3797 36.2482 16.8847 35.2616L26.767 28.7559C28.0075 27.9362 28.7557 26.5602 28.7557 25.0899V10.9185C28.7557 9.44186 28.0075 8.06795 26.767 7.25259L16.8782 0.742539C15.3754 -0.244026 13.4171 -0.248307 11.9121 0.742539L11.9186 0.736119ZM22.4667 25.9995L16.759 29.5177C15.7224 30.1555 14.3822 29.4236 14.3822 28.2187V17.9957L7.28433 23.2367C6.26075 23.9921 4.79911 23.273 4.79911 22.0083V12.6477C4.79911 11.5669 5.36295 10.559 6.29545 9.98544L12.0032 6.46719C13.0398 5.82945 14.38 6.56135 14.38 7.7662V17.9892L21.4778 12.7482C22.5014 11.9928 23.963 12.7119 23.963 13.9766V23.3394C23.963 24.4201 23.3992 25.4281 22.4645 26.0016L22.4667 25.9995Z" fill="url(#paint0_linear_194_423)"/>
<path d="M81.3334 15.6823H78.5164C78.2019 15.6823 77.946 15.6096 77.753 15.464C77.56 15.3185 77.4126 15.1345 77.3128 14.9076L76.389 12.2133H70.434L69.5102 14.9076C69.4321 15.1066 69.289 15.2843 69.0851 15.4426C68.8813 15.601 68.6276 15.6823 68.3283 15.6823H65.4896L71.3795 0.661276C71.4814 0.400189 71.7373 0.226845 72.0214 0.226845H74.7972C75.0813 0.226845 75.3372 0.400189 75.4391 0.661276L81.3312 15.6823H81.3334ZM75.5606 9.77363L74.1098 5.5406C74.0035 5.27095 73.8886 4.95637 73.765 4.59042C73.6435 4.22661 73.5221 3.83284 73.4007 3.40697C73.2922 3.83926 73.1795 4.23731 73.0558 4.6054C72.9322 4.97349 72.8195 5.29235 72.711 5.55986L71.2711 9.77149H75.5606V9.77363Z" fill="white"/>
<path d="M47.3124 12.8168V0.877422C47.3124 0.374509 46.7442 0.0727614 46.3191 0.353109L44.0378 1.85115C43.8144 1.99881 43.68 2.24492 43.68 2.51028V15.6802H52.556C52.8662 15.6802 53.1177 15.4319 53.1177 15.1259V13.3711C53.1177 13.065 52.8662 12.8168 52.556 12.8168H47.3124Z" fill="white"/>
<path d="M65.0472 2.42896V0.781119C65.0472 0.475091 64.7956 0.226845 64.4855 0.226845H57.5265C57.3725 0.239685 57.2142 0.284626 57.0689 0.380929L55.321 1.53014C55.0977 1.6778 54.9632 1.92391 54.9632 2.18927V15.6845H64.4834C64.7935 15.6845 65.045 15.4362 65.045 15.1302V13.4802C65.045 13.1742 64.7935 12.9259 64.4834 12.9259H58.6173V9.24503H62.9783C63.2885 9.24503 63.54 8.99679 63.54 8.69076V7.14778C63.54 6.84175 63.2885 6.59351 62.9783 6.59351H58.6173V2.98323H64.4834C64.7935 2.98323 65.045 2.73499 65.045 2.42896H65.0472Z" fill="white"/>
<path d="M109.781 22.2887V20.6387C109.781 20.3327 109.53 20.0844 109.219 20.0844H102.26C102.106 20.0973 101.948 20.1422 101.803 20.2385L100.055 21.3877C99.8316 21.5354 99.6971 21.7815 99.6971 22.0468V35.542H109.217C109.527 35.542 109.779 35.2938 109.779 34.9878V33.3378C109.779 33.0317 109.527 32.7835 109.217 32.7835H103.351V29.1026H107.712C108.022 29.1026 108.274 28.8544 108.274 28.5483V27.0053C108.274 26.6993 108.022 26.4511 107.712 26.4511H103.351V22.8451H109.217C109.527 22.8451 109.779 22.5968 109.779 22.2908L109.781 22.2887Z" fill="white"/>
<path d="M113.409 2.53382V15.6823H117.063V0.888122C117.063 0.385209 116.495 0.0834616 116.07 0.363809L113.767 1.87683C113.544 2.02449 113.409 2.2706 113.409 2.53596V2.53382Z" fill="white"/>
<path d="M95.0042 15.0703L92.0506 10.3022C91.8858 10.054 91.6993 9.83997 91.4911 9.66021C91.2829 9.48044 91.0617 9.33064 90.8254 9.20865C91.3328 9.01819 91.7839 8.77422 92.1742 8.47676C92.5646 8.17929 92.892 7.84116 93.1566 7.46237C93.4212 7.08358 93.6229 6.67269 93.7595 6.22756C93.8961 5.78243 93.9633 5.30947 93.9633 4.80656C93.9633 4.14956 93.8484 3.54179 93.6185 2.98324C93.3886 2.42468 93.0221 1.94103 92.5169 1.53014C92.0116 1.11925 91.3588 0.80038 90.5608 0.569254C89.7627 0.338128 88.7955 0.224705 87.6635 0.224705H85.1306C84.9766 0.237545 84.8183 0.282486 84.6752 0.378789L82.9273 1.528C82.7039 1.67566 82.5695 1.92177 82.5695 2.18713V15.1045C82.5695 15.4234 82.8297 15.6802 83.1528 15.6802H85.6185C85.9417 15.6802 86.2019 15.4234 86.2019 15.1045V9.96195H87.1257C87.4055 9.96195 87.6202 10.0069 87.7698 10.0946C87.9194 10.1824 88.056 10.3215 88.1775 10.5141L90.7798 15.0018C91.0444 15.4555 91.4824 15.6802 92.0918 15.6802H94.6551C94.9739 15.6802 95.1669 15.3378 95.0021 15.0703H95.0042ZM90.2659 6.02211C90.1661 6.3153 90.0056 6.57211 89.7823 6.79039C89.5611 7.00868 89.2748 7.18202 88.9278 7.30401C88.5809 7.42813 88.1601 7.49019 87.6657 7.49019H86.2041V2.91047H87.6657C88.6047 2.91047 89.2965 3.10094 89.7454 3.48401C90.1943 3.86708 90.4177 4.39567 90.4177 5.07621C90.4177 5.41648 90.3678 5.73321 90.268 6.02639L90.2659 6.02211Z" fill="white"/>
<path d="M65.2402 23.104C65.3378 23.0955 65.4354 23.0677 65.5265 23.0077L66.6194 22.2887C66.7582 22.1966 66.8428 22.0426 66.8428 21.8778V20.8163C66.8428 20.5103 66.5912 20.262 66.2811 20.262H55.9976C55.9 20.2706 55.8024 20.2984 55.7114 20.3583L54.6184 21.0753C54.4796 21.1673 54.395 21.3214 54.395 21.4883V22.5498C54.395 22.8558 54.6466 23.104 54.9567 23.104H58.8016V35.1632C58.8016 35.4693 59.0532 35.7175 59.3633 35.7175H61.8724C62.1825 35.7175 62.434 35.4693 62.434 35.1632V23.104" fill="white"/>
<path d="M109.384 0.350969L107.532 1.56652C107.309 1.71418 107.174 1.96029 107.174 2.22566V8.40614C107.174 8.65438 107.181 8.91761 107.196 9.19582C107.209 9.47402 107.235 9.76293 107.272 10.0604L99.8207 0.77684C99.721 0.656997 99.6299 0.560694 99.5518 0.490073C99.4737 0.419451 99.3913 0.363809 99.3046 0.325288C99.2179 0.286767 99.1224 0.258947 99.014 0.246106C99.0075 0.246106 99.001 0.246106 98.9945 0.246106L97.4786 1.24123L97.123 1.47664L97.0623 1.5173C96.8389 1.66496 96.7044 1.91107 96.7044 2.17644V15.0638C96.7044 15.4063 96.9842 15.6823 97.3312 15.6823H99.2807C99.6277 15.6823 99.9075 15.4063 99.9075 15.0638V7.39603C99.9075 7.16918 99.901 6.92736 99.8901 6.66841C99.8793 6.4116 99.8598 6.1441 99.8316 5.86803L107.216 15.0874C107.402 15.3057 107.591 15.4598 107.779 15.5496C107.97 15.6374 108.205 15.6823 108.484 15.6823H109.625C110.039 15.6823 110.377 15.3506 110.377 14.9397V0.875283C110.377 0.37237 109.809 0.0706219 109.384 0.348829V0.350969Z" fill="white"/>
<path d="M132.775 0.350969L130.923 1.56652C130.699 1.71418 130.565 1.96029 130.565 2.22566V8.40614C130.565 8.65438 130.571 8.91761 130.587 9.19582C130.6 9.47402 130.626 9.76293 130.663 10.0604L123.213 0.77684C123.114 0.656997 123.023 0.560694 122.945 0.490073C122.866 0.419451 122.784 0.363809 122.697 0.325288C122.611 0.286767 122.515 0.258947 122.407 0.246106C122.4 0.246106 122.394 0.246106 122.387 0.246106L120.871 1.24123L120.516 1.47664L120.455 1.5173C120.232 1.66496 120.097 1.91107 120.097 2.17644V15.0638C120.097 15.4063 120.377 15.6823 120.724 15.6823H122.673C123.02 15.6823 123.3 15.4063 123.3 15.0638V7.39603C123.3 7.16918 123.294 6.92736 123.283 6.66841C123.272 6.4116 123.252 6.1441 123.224 5.86803L130.608 15.0874C130.795 15.3057 130.984 15.4598 131.172 15.5496C131.363 15.6374 131.597 15.6823 131.877 15.6823H133.018C133.432 15.6823 133.77 15.3506 133.77 14.9397V0.875283C133.77 0.37237 133.202 0.0706219 132.777 0.348829L132.775 0.350969Z" fill="white"/>
<path d="M95.8153 20.3883L93.9633 21.6039C93.74 21.7515 93.6055 21.9976 93.6055 22.263V28.4435C93.6055 28.6917 93.612 28.9549 93.6272 29.2331C93.6402 29.5114 93.6662 29.8003 93.7031 30.0977L86.2539 20.8163C86.1542 20.6965 86.0631 20.6002 85.985 20.5295C85.907 20.4589 85.8246 20.4033 85.7378 20.3648C85.6511 20.3262 85.5557 20.2984 85.4472 20.2856C85.4407 20.2856 85.4342 20.2856 85.4277 20.2856L83.9119 21.2807L83.5562 21.5161L83.4955 21.5568C83.2721 21.7044 83.1377 21.9505 83.1377 22.2159V35.1033C83.1377 35.4457 83.4174 35.7218 83.7644 35.7218H85.714C86.0609 35.7218 86.3407 35.4457 86.3407 35.1033V27.4376C86.3407 27.2108 86.3342 26.969 86.3233 26.71C86.3125 26.4532 86.293 26.1857 86.2648 25.9096L93.6489 35.129C93.8354 35.3473 94.024 35.5014 94.2127 35.5912C94.4036 35.679 94.6378 35.7239 94.9175 35.7239H96.0582C96.4724 35.7239 96.8107 35.3922 96.8107 34.9813V20.9126C96.8107 20.4097 96.2425 20.108 95.8175 20.3862L95.8153 20.3883Z" fill="white"/>
<path d="M144.325 7.6721H149.894V14.1971C149.091 14.7771 148.237 15.1965 147.33 15.4598C146.424 15.7208 145.476 15.8514 144.487 15.8514C143.197 15.8514 142.024 15.6524 140.966 15.2522C139.91 14.852 139.003 14.2998 138.251 13.5979C137.498 12.8938 136.919 12.0592 136.509 11.094C136.101 10.1289 135.898 9.08025 135.898 7.94816C135.898 6.81607 136.091 5.73749 136.479 4.77232C136.867 3.80716 137.42 2.97468 138.14 2.27488C138.86 1.57508 139.732 1.02937 140.753 0.642016C141.774 0.252526 142.915 0.0599213 144.177 0.0599213C144.83 0.0599213 145.442 0.113423 146.016 0.218285C146.591 0.323148 147.118 0.468672 147.602 0.652716C148.085 0.836761 148.528 1.05505 148.929 1.30971C149.33 1.56438 149.688 1.84045 150.004 2.13577L148.95 3.71727C148.786 3.96552 148.573 4.11746 148.311 4.17311C148.05 4.23089 147.769 4.16669 147.467 3.98264C147.181 3.81358 146.91 3.66591 146.656 3.54179C146.402 3.41767 146.142 3.31708 145.877 3.24004C145.613 3.163 145.333 3.10522 145.038 3.07098C144.743 3.03674 144.416 3.01748 144.049 3.01748C143.368 3.01748 142.757 3.13518 142.21 3.37273C141.664 3.61027 141.202 3.94412 140.818 4.37427C140.434 4.80656 140.139 5.32446 139.931 5.92795C139.723 6.53145 139.619 7.20556 139.619 7.94816C139.619 8.7678 139.734 9.49756 139.964 10.1332C140.194 10.7688 140.517 11.308 140.937 11.7468C141.358 12.1855 141.859 12.5193 142.442 12.7483C143.026 12.9773 143.674 13.0929 144.383 13.0929C144.821 13.0929 145.216 13.0501 145.572 12.9645C145.927 12.8788 146.272 12.7676 146.608 12.6263V10.2808H145.06C144.83 10.2808 144.65 10.2209 144.522 10.1011C144.394 9.98121 144.329 9.82927 144.329 9.64523V7.6721H144.325Z" fill="white"/>
<path d="M52.3327 23.4015C52.2243 23.5706 52.1115 23.699 51.9944 23.7846C51.8773 23.8702 51.7233 23.9108 51.5368 23.9108C51.372 23.9108 51.1942 23.8595 51.0033 23.7567C50.8147 23.654 50.5978 23.5385 50.3593 23.4122C50.1185 23.2859 49.8453 23.1704 49.5374 23.0676C49.2294 22.9649 48.8781 22.9136 48.4834 22.9136C47.8025 22.9136 47.295 23.0569 46.9632 23.3437C46.6293 23.6305 46.4644 24.0178 46.4644 24.5058C46.4644 24.8161 46.5642 25.075 46.7659 25.2805C46.9676 25.4859 47.23 25.6614 47.5553 25.8112C47.8805 25.9589 48.2535 26.0958 48.6743 26.2199C49.0928 26.3441 49.5222 26.481 49.9581 26.633C50.3961 26.7849 50.8233 26.9647 51.2419 27.168C51.6604 27.3713 52.0334 27.6345 52.3609 27.9534C52.6862 28.2723 52.9507 28.6596 53.1502 29.1154C53.3498 29.5713 53.4517 30.1213 53.4517 30.7654C53.4517 31.4802 53.3259 32.1479 53.0743 32.7707C52.8228 33.3934 52.4606 33.937 51.9835 34.3992C51.5064 34.8615 50.9188 35.2274 50.2205 35.4928C49.5222 35.7582 48.7285 35.8909 47.8393 35.8909C47.3514 35.8909 46.857 35.8416 46.3495 35.7432C45.8442 35.6448 45.3541 35.5035 44.8814 35.3237C44.4086 35.144 43.9641 34.93 43.5499 34.6817C43.1335 34.4335 42.7713 34.1574 42.4634 33.8535L43.539 32.1779C43.6258 32.058 43.7385 31.9574 43.8773 31.8761C44.0183 31.7948 44.1679 31.7541 44.3349 31.7541C44.5496 31.7541 44.7664 31.8205 44.9855 31.9553C45.2045 32.0901 45.4517 32.2378 45.7271 32.4004C46.0025 32.5631 46.3192 32.7107 46.6791 32.8456C47.037 32.9804 47.4598 33.0467 47.9478 33.0467C48.607 33.0467 49.121 32.9033 49.4853 32.6166C49.8518 32.3298 50.034 31.8761 50.034 31.2534C50.034 30.8917 49.9342 30.6006 49.7325 30.3738C49.5309 30.1469 49.2685 29.9608 48.9432 29.811C48.6179 29.6612 48.247 29.5328 47.8307 29.4193C47.4143 29.3059 46.9893 29.1818 46.5512 29.0427C46.1153 28.9036 45.6881 28.7345 45.2717 28.5333C44.8553 28.3322 44.4845 28.0668 44.1592 27.7372C43.8339 27.4077 43.5694 26.9989 43.3699 26.5067C43.1703 26.0145 43.0684 25.4089 43.0684 24.6877C43.0684 24.1077 43.1877 23.5427 43.4241 22.9906C43.6604 22.4385 44.0074 21.9463 44.4672 21.5161C44.9269 21.0838 45.4886 20.7393 46.1543 20.4803C46.8201 20.2235 47.5834 20.093 48.4444 20.093C48.9236 20.093 49.3921 20.1294 49.8475 20.2043C50.3029 20.2792 50.7344 20.3883 51.1421 20.5338C51.5498 20.6793 51.9315 20.8527 52.2871 21.0539C52.6428 21.255 52.9594 21.484 53.2392 21.7387L52.337 23.4036L52.3327 23.4015Z" fill="white"/>
<path d="M79.6853 21.3385L78.4145 20.4782C78.1738 20.3155 77.8875 20.2278 77.5947 20.2278H70.8764C70.5836 20.2278 70.2974 20.3155 70.0567 20.4782L68.7859 21.3385C68.3912 21.606 68.1548 22.0468 68.1548 22.5198V33.4298C68.1548 33.9028 68.3912 34.3436 68.7859 34.6111L70.0567 35.4714C70.2974 35.6341 70.5836 35.7218 70.8764 35.7218H77.5947C77.8875 35.7218 78.1738 35.6341 78.4145 35.4714L79.6853 34.6111C80.08 34.3436 80.3163 33.9028 80.3163 33.4298V22.5198C80.3163 22.0468 80.08 21.606 79.6853 21.3385ZM77.1068 32.18C77.0938 32.3191 77.0461 32.4261 76.9181 32.5139L76.6601 32.7C76.5625 32.7664 76.363 32.8177 76.2459 32.8177H72.2231C72.106 32.8177 71.9065 32.7664 71.8089 32.7L71.5508 32.5139C71.3947 32.4068 71.3578 32.2742 71.3557 32.088L71.3622 23.7674C71.3752 23.6283 71.4229 23.5213 71.5508 23.4336L71.8089 23.2474C71.9065 23.1811 72.106 23.1297 72.2231 23.1297H76.2459C76.363 23.1297 76.5625 23.1811 76.6601 23.2474L76.9181 23.4336C77.0743 23.5406 77.1111 23.6733 77.1133 23.8595L77.1068 32.18Z" fill="white"/>
</g>
<defs>
<linearGradient id="paint0_linear_194_423" x1="7.80697" y1="-2.22144" x2="20.7061" y2="38.5476" gradientUnits="userSpaceOnUse">
<stop stop-color="#BE97FC"/>
<stop offset="1" stop-color="#4935C4"/>
</linearGradient>
<clipPath id="clip0_194_423">
<rect width="150" height="36" fill="white"/>
</clipPath>
</defs>
</svg>
