<svg width="150" height="36" viewBox="0 0 150 36" fill="none" xmlns="http://www.w3.org/2000/svg">
<g clip-path="url(#clip0_193_1026)">
<path d="M11.9186 0.736117L1.99511 7.24616C0.748167 8.06152 0 9.44186 0 10.9185V25.0835C0 26.5602 0.748167 27.9341 1.99511 28.7559L11.9186 35.2616C13.4215 36.2482 15.3797 36.2482 16.8847 35.2616L26.767 28.7559C28.0075 27.9362 28.7557 26.5602 28.7557 25.0899V10.9185C28.7557 9.44186 28.0075 8.06794 26.767 7.25258L16.8782 0.742537C15.3754 -0.244028 13.4171 -0.248308 11.9121 0.742537L11.9186 0.736117ZM22.4667 25.9995L16.759 29.5177C15.7224 30.1555 14.3822 29.4236 14.3822 28.2187V17.9957L7.28433 23.2367C6.26075 23.9921 4.79911 23.273 4.79911 22.0083V12.6477C4.79911 11.5669 5.36295 10.559 6.29545 9.98543L12.0032 6.46718C13.0398 5.82945 14.38 6.56135 14.38 7.7662V17.9892L21.4778 12.7482C22.5014 11.9928 23.963 12.7119 23.963 13.9766V23.3394C23.963 24.4201 23.3992 25.4281 22.4645 26.0016L22.4667 25.9995Z" fill="url(#paint0_linear_193_1026)"/>
<path d="M68.3282 15.1823H66.2226L71.8449 0.843801L71.8452 0.843104C71.871 0.777039 71.9398 0.726845 72.0213 0.726845H74.7971C74.8787 0.726845 74.9475 0.777039 74.9733 0.843104L74.9736 0.84386L80.5979 15.1823H78.5163C78.2768 15.1823 78.1367 15.1272 78.054 15.0648C77.9334 14.9739 77.8427 14.8631 77.7782 14.7236L76.8619 12.0511L76.746 11.7133H76.3889H70.4339H70.0768L69.9609 12.0511L69.0413 14.7334C69.0023 14.8278 68.9247 14.9341 68.7783 15.0478C68.6744 15.1285 68.5329 15.1823 68.3282 15.1823ZM75.5605 10.2715V9.85693L76.0605 9.77363V9.77149V9.27149H75.9169L74.5827 5.37849L74.579 5.3678L74.5749 5.35728C74.4722 5.0967 74.3602 4.7903 74.2389 4.43133C74.1201 4.0755 74.0009 3.6891 73.8814 3.26985L73.3696 1.47517L72.9156 3.28532C72.8093 3.70895 72.7001 4.09386 72.5818 4.44622C72.4591 4.81165 72.3502 5.11895 72.2476 5.37204L72.2423 5.38493L72.2378 5.3981L70.7979 9.60973L70.5716 10.2715H71.271H75.5605Z" fill="white" stroke="#E9E9E9"/>
<path d="M46.8123 12.8168V13.3168H47.3123H52.556C52.5963 13.3168 52.6177 13.3474 52.6177 13.3711V15.1259C52.6177 15.1496 52.5963 15.1802 52.556 15.1802H44.1799V2.51028C44.1799 2.41653 44.227 2.32566 44.313 2.26856C44.3132 2.26846 44.3133 2.26835 44.3135 2.26824L46.5936 0.771058L46.5944 0.770496C46.6955 0.703793 46.8123 0.782907 46.8123 0.877422V12.8168Z" fill="white" stroke="#E9E9E9"/>
<path d="M64.4833 15.1845H55.4631V2.18927C55.4631 2.09549 55.5102 2.0046 55.5963 1.9475C55.5964 1.94741 55.5966 1.94732 55.5967 1.94723L57.3435 0.798716L57.3435 0.798719L57.3451 0.797696C57.4039 0.75869 57.4721 0.735619 57.5503 0.726845H64.4855C64.5257 0.726845 64.5471 0.757465 64.5471 0.781119V1.92896H64.545V2.42896C64.545 2.45262 64.5235 2.48323 64.4833 2.48323H58.6172H58.1172V2.98323V6.59351V7.09351H58.6172H62.9783C63.0185 7.09351 63.04 7.12412 63.04 7.14778V8.69076C63.04 8.71442 63.0185 8.74503 62.9783 8.74503H58.6172H58.1172V9.24503V12.9259V13.4259H58.6172H64.4833C64.5235 13.4259 64.545 13.4565 64.545 13.4802V15.1302C64.545 15.1538 64.5235 15.1845 64.4833 15.1845Z" fill="white" stroke="#E9E9E9"/>
<path d="M109.217 35.042H100.197V22.0468C100.197 21.953 100.244 21.8622 100.33 21.8051C100.33 21.805 100.33 21.8049 100.331 21.8048L102.077 20.6563L102.077 20.6563L102.079 20.6553C102.138 20.6163 102.206 20.5932 102.284 20.5844H109.219C109.26 20.5844 109.281 20.615 109.281 20.6387V22.0795L109.279 22.0817V22.2908C109.279 22.3145 109.257 22.3451 109.217 22.3451H103.351H102.851V22.8451V26.4511V26.9511H103.351H107.712C107.752 26.9511 107.774 26.9817 107.774 27.0053V28.5483C107.774 28.572 107.752 28.6026 107.712 28.6026H103.351H102.851V29.1026V32.7835V33.2835H103.351H109.217C109.257 33.2835 109.279 33.3141 109.279 33.3378V34.9878C109.279 35.0114 109.257 35.042 109.217 35.042Z" fill="white" stroke="#E9E9E9"/>
<path d="M116.563 0.888126V15.1823H113.909V2.53597C113.909 2.44218 113.956 2.35131 114.042 2.29422C114.042 2.29412 114.043 2.29402 114.043 2.29393L116.345 0.781701L116.345 0.7812C116.446 0.714496 116.563 0.793613 116.563 0.888126Z" fill="white" stroke="#E9E9E9"/>
<path d="M94.1787 14.6869L94.4826 15.1802H92.0919C91.6247 15.1802 91.3704 15.0214 91.2121 14.7504C91.212 14.7503 91.2119 14.7501 91.2118 14.7499L88.6101 10.2633L88.6055 10.2553L88.6005 10.2474C88.4477 10.005 88.2576 9.80102 88.0228 9.66333C87.7641 9.51164 87.4475 9.46196 87.1258 9.46196H86.202H85.702V9.96196V15.1045C85.702 15.141 85.6719 15.1802 85.6186 15.1802H83.1529C83.0997 15.1802 83.0696 15.141 83.0696 15.1045V2.18714C83.0696 2.09335 83.1166 2.00246 83.2027 1.94536C83.2029 1.94528 83.203 1.94519 83.2031 1.9451L84.95 0.79658L84.95 0.796604L84.9544 0.793631C85.0095 0.756557 85.076 0.733523 85.1545 0.724709H87.6636C88.7653 0.724709 89.6826 0.835445 90.4218 1.04952C91.1737 1.26729 91.7612 1.56001 92.2015 1.91807C92.6472 2.28051 92.9605 2.69793 93.1562 3.17353C93.3592 3.6666 93.4634 4.20908 93.4634 4.80657C93.4634 5.2644 93.4023 5.6875 93.2816 6.08085C93.1604 6.47557 92.9819 6.83944 92.7468 7.17607C92.5136 7.50986 92.223 7.81102 91.8713 8.07907C91.524 8.34368 91.1169 8.5652 90.6497 8.74055L89.5951 9.13639L90.5962 9.65298C90.7967 9.75647 90.9853 9.88396 91.1644 10.0386C91.3338 10.1849 91.4893 10.3618 91.6299 10.5725L94.1787 14.6869ZM90.2267 7.05009L90.3591 7.31113L90.7415 6.18745C90.8605 5.83754 90.9177 5.46588 90.9177 5.07621C90.9177 4.2741 90.6478 3.59672 90.07 3.10367C89.4904 2.609 88.6572 2.41048 87.6658 2.41048H86.2042H85.7042V2.91048V7.49019V7.99019H86.2042H87.6658C88.1987 7.99019 88.6794 7.92373 89.095 7.77525C89.4997 7.63281 89.8518 7.42407 90.1327 7.14714C90.1651 7.11546 90.1964 7.0831 90.2267 7.05009Z" fill="white" stroke="#E9E9E9"/>
<mask id="path-8-inside-1_193_1026" fill="white">
<path d="M65.2402 23.104C65.3378 23.0955 65.4354 23.0677 65.5265 23.0077L66.6194 22.2887C66.7582 22.1966 66.8428 22.0426 66.8428 21.8778V20.8163C66.8428 20.5103 66.5912 20.262 66.2811 20.262H55.9976C55.9 20.2706 55.8024 20.2984 55.7114 20.3583L54.6184 21.0753C54.4796 21.1673 54.395 21.3214 54.395 21.4883V22.5498C54.395 22.8558 54.6466 23.104 54.9567 23.104H58.8016V35.1632C58.8016 35.4693 59.0532 35.7175 59.3633 35.7175H61.8724C62.1825 35.7175 62.434 35.4693 62.434 35.1632V23.104"/>
</mask>
<path d="M65.2402 23.104C65.3378 23.0955 65.4354 23.0677 65.5265 23.0077L66.6194 22.2887C66.7582 22.1966 66.8428 22.0426 66.8428 21.8778V20.8163C66.8428 20.5103 66.5912 20.262 66.2811 20.262H55.9976C55.9 20.2706 55.8024 20.2984 55.7114 20.3583L54.6184 21.0753C54.4796 21.1673 54.395 21.3214 54.395 21.4883V22.5498C54.395 22.8558 54.6466 23.104 54.9567 23.104H58.8016V35.1632C58.8016 35.4693 59.0532 35.7175 59.3633 35.7175H61.8724C62.1825 35.7175 62.434 35.4693 62.434 35.1632V23.104" fill="white"/>
<path d="M65.5265 23.0077L64.9768 22.1723V22.1723L65.5265 23.0077ZM66.6194 22.2887L67.169 23.1241L67.172 23.1221L66.6194 22.2887ZM55.9976 20.262V19.262H55.9538L55.9102 19.2659L55.9976 20.262ZM55.7114 20.3583L56.2598 21.1945L56.261 21.1938L55.7114 20.3583ZM54.6184 21.0753L54.0699 20.2391L54.0658 20.2418L54.6184 21.0753ZM58.8016 23.104H59.8016V22.104H58.8016V23.104ZM65.3276 24.1002C65.5588 24.0799 65.8225 24.01 66.0761 23.8431L64.9768 22.1723C65.0483 22.1253 65.1168 22.111 65.1528 22.1079L65.3276 24.1002ZM66.0761 23.8431L67.169 23.1241L66.0698 21.4533L64.9768 22.1723L66.0761 23.8431ZM67.172 23.1221C67.5821 22.8502 67.8428 22.3874 67.8428 21.8778H65.8428C65.8428 21.6977 65.9343 21.5431 66.0668 21.4552L67.172 23.1221ZM67.8428 21.8778V20.8163H65.8428V21.8778H67.8428ZM67.8428 20.8163C67.8428 19.9455 67.131 19.262 66.2811 19.262V21.262C66.0515 21.262 65.8428 21.075 65.8428 20.8163H67.8428ZM66.2811 19.262H55.9976V21.262H66.2811V19.262ZM55.9102 19.2659C55.679 19.2861 55.4153 19.3561 55.1617 19.5229L56.261 21.1938C56.1896 21.2407 56.1211 21.2551 56.085 21.2582L55.9102 19.2659ZM55.1629 19.5222L54.0699 20.2391L55.1669 21.9114L56.2598 21.1945L55.1629 19.5222ZM54.0658 20.2418C53.6537 20.5151 53.395 20.9789 53.395 21.4883H55.395C55.395 21.6638 55.3055 21.8195 55.171 21.9087L54.0658 20.2418ZM53.395 21.4883V22.5498H55.395V21.4883H53.395ZM53.395 22.5498C53.395 23.4205 54.1068 24.104 54.9567 24.104V22.104C55.1863 22.104 55.395 22.291 55.395 22.5498H53.395ZM54.9567 24.104H58.8016V22.104H54.9567V24.104ZM57.8016 23.104V35.1632H59.8016V23.104H57.8016ZM57.8016 35.1632C57.8016 36.034 58.5134 36.7175 59.3633 36.7175V34.7175C59.5929 34.7175 59.8016 34.9045 59.8016 35.1632H57.8016ZM59.3633 36.7175H61.8724V34.7175H59.3633V36.7175ZM61.8724 36.7175C62.7222 36.7175 63.434 36.034 63.434 35.1632H61.434C61.434 34.9045 61.6427 34.7175 61.8724 34.7175V36.7175ZM63.434 35.1632V23.104H61.434V35.1632H63.434Z" fill="#E9E9E9" mask="url(#path-8-inside-1_193_1026)"/>
<path d="M109.679 0.755538L109.659 0.768972L107.808 1.98361C107.808 1.98375 107.808 1.98388 107.807 1.98401C107.721 2.04111 107.674 2.13194 107.674 2.22566V8.40613C107.674 8.64562 107.681 8.89976 107.695 9.16857L107.696 9.17245C107.708 9.43592 107.733 9.71195 107.768 9.9989L107.985 11.7474L106.882 10.3734L99.4336 1.0934C99.3453 0.987596 99.2715 0.910821 99.2163 0.860869C99.1709 0.819787 99.1323 0.795893 99.1016 0.782255C99.099 0.781122 99.0965 0.780007 99.0939 0.77891L97.7545 1.65817L97.7537 1.65869L97.4 1.89284L97.3404 1.93275L97.3379 1.9344L97.3379 1.93439C97.2516 1.99147 97.2043 2.0825 97.2043 2.17643V15.0638C97.2043 15.1239 97.254 15.1823 97.3311 15.1823H99.2806C99.3578 15.1823 99.4074 15.1239 99.4074 15.0638V7.39603C99.4074 7.17845 99.4011 6.94408 99.3905 6.6895L109.679 0.755538ZM109.679 0.755538C109.721 0.736426 109.765 0.739153 109.806 0.760843C109.853 0.78607 109.877 0.82619 109.877 0.875281V14.9397C109.877 15.0673 109.77 15.1823 109.625 15.1823H108.484C108.258 15.1823 108.1 15.1461 107.991 15.0968C107.886 15.0458 107.753 14.9458 107.601 14.7683L100.222 5.55546L99.1618 4.23211L99.3341 5.91882C99.3613 6.18562 99.3801 6.44314 99.3905 6.68933L109.679 0.755538Z" fill="white" stroke="#E9E9E9"/>
<path d="M133.063 0.760046L133.049 0.768972L131.199 1.98361C131.198 1.98374 131.198 1.98386 131.198 1.98399C131.112 2.04108 131.065 2.13192 131.065 2.22566V8.40613C131.065 8.64563 131.071 8.89977 131.086 9.16857L131.086 9.17245C131.098 9.43591 131.123 9.71194 131.159 9.9989L131.376 11.7479L130.273 10.3733L122.826 1.09337C122.738 0.98758 122.664 0.910816 122.609 0.860869L122.944 0.491109L122.609 0.860868C122.564 0.819797 122.525 0.795898 122.494 0.782255C122.492 0.781122 122.489 0.780008 122.487 0.778911L121.147 1.65817L121.147 1.6587L120.793 1.89282L120.733 1.93274L120.731 1.9344L120.731 1.93439C120.644 1.99148 120.597 2.08251 120.597 2.17643V15.0638C120.597 15.1239 120.647 15.1823 120.724 15.1823H122.673C122.751 15.1823 122.8 15.1239 122.8 15.0638V7.39603C122.8 7.17845 122.794 6.94408 122.783 6.6895L133.063 0.760046ZM133.063 0.760046C133.107 0.73613 133.155 0.73758 133.199 0.760842C133.246 0.786066 133.27 0.826185 133.27 0.875281V14.9397C133.27 15.0673 133.163 15.1823 133.018 15.1823H131.877C131.651 15.1823 131.493 15.1461 131.384 15.0968C131.279 15.0458 131.146 14.9458 130.993 14.7683L123.615 5.55546L122.555 4.23211L122.727 5.91882C122.754 6.18563 122.773 6.44315 122.783 6.68933L133.063 0.760046Z" fill="white" stroke="#E9E9E9"/>
<path d="M96.1033 20.7974L96.0897 20.8063L94.2391 22.0209C94.2389 22.021 94.2388 22.0211 94.2386 22.0213C94.1526 22.0783 94.1055 22.1692 94.1055 22.263V28.4435C94.1055 28.683 94.1118 28.9371 94.1265 29.2059L94.1267 29.2098L94.1267 29.2098C94.139 29.4733 94.1638 29.7493 94.1993 30.0362L94.416 31.7848L93.3132 30.4107L85.8669 21.1329C85.7786 21.0271 85.7049 20.9503 85.6496 20.9003C85.6042 20.8593 85.5656 20.8354 85.5349 20.8217C85.5324 20.8206 85.5298 20.8195 85.5272 20.8184L84.1879 21.6976L84.1871 21.6982L83.8333 21.9323L83.7737 21.9722L83.7713 21.9739L83.7712 21.9739C83.6849 22.0309 83.6377 22.122 83.6377 22.2159V35.1033C83.6377 35.1634 83.6873 35.2218 83.7644 35.2218H85.714C85.7911 35.2218 85.8407 35.1634 85.8407 35.1033V27.4376C85.8407 27.2201 85.8345 26.9857 85.8238 26.7311L96.1033 20.7974ZM96.1033 20.7974C96.1476 20.7735 96.1954 20.7749 96.2392 20.7982C96.2868 20.8234 96.3107 20.8635 96.3107 20.9126V34.9813C96.3107 35.1089 96.2035 35.2239 96.0582 35.2239H94.9175C94.6913 35.2239 94.5334 35.1877 94.4247 35.1384C94.3192 35.0874 94.1866 34.9875 94.034 34.8099L86.6551 25.5971L85.5952 24.2737L85.7674 25.9604C85.7947 26.2272 85.8134 26.4848 85.8238 26.7309L96.1033 20.7974Z" fill="white" stroke="#E9E9E9"/>
<path d="M144.829 9.64523V8.1721H149.394V13.937C148.697 14.4095 147.964 14.7551 147.192 14.9794C146.332 15.2268 145.432 15.3514 144.487 15.3514C143.249 15.3514 142.137 15.1604 141.142 14.7845C140.141 14.4051 139.292 13.8859 138.592 13.2327C137.892 12.5776 137.353 11.8014 136.969 10.899C136.59 10.0003 136.397 9.01865 136.397 7.94816C136.397 6.87218 136.581 5.8579 136.943 4.95889C137.306 4.05579 137.82 3.2826 138.488 2.63342C139.155 1.98505 139.967 1.47464 140.93 1.10953L140.931 1.1092C141.887 0.744669 142.966 0.559921 144.177 0.559921C144.803 0.559921 145.384 0.611174 145.926 0.710164C146.474 0.810046 146.971 0.947794 147.424 1.12002C147.879 1.29337 148.291 1.49708 148.661 1.73185C148.907 1.88823 149.135 2.05244 149.345 2.22375L148.534 3.43999L148.534 3.44072C148.432 3.59386 148.326 3.65879 148.207 3.68398L148.207 3.68396L148.202 3.68499C148.106 3.70639 147.956 3.69567 147.728 3.5559L147.728 3.55585L147.721 3.55212C147.426 3.37778 147.143 3.22361 146.876 3.09265C146.596 2.95606 146.309 2.84509 146.017 2.75998C145.726 2.67522 145.419 2.61182 145.096 2.57431C144.78 2.53766 144.433 2.51748 144.049 2.51748C143.31 2.51748 142.629 2.64552 142.011 2.91417C141.399 3.18001 140.878 3.55626 140.445 4.04137L140.444 4.04229C140.012 4.52912 139.686 5.10618 139.458 5.7649C139.229 6.4287 139.119 7.15903 139.119 7.94816C139.119 8.81367 139.24 9.60275 139.493 10.3032C139.744 10.9955 140.101 11.5973 140.576 12.0928C141.049 12.5851 141.611 12.959 142.26 13.2137C142.908 13.4683 143.619 13.5929 144.383 13.5929C144.853 13.5929 145.288 13.547 145.689 13.4506C146.069 13.3591 146.439 13.2396 146.802 13.0873L147.108 12.9586V12.6263V10.2808V9.78082H146.608H145.06C144.915 9.78082 144.873 9.74452 144.864 9.73613C144.841 9.71452 144.829 9.69649 144.829 9.64523Z" fill="white" stroke="#E9E9E9"/>
<path d="M52.6047 21.86L51.9373 23.0919L51.9118 23.1316C51.8239 23.2686 51.7505 23.3435 51.6993 23.3809C51.6936 23.3851 51.6543 23.4108 51.5368 23.4108C51.4768 23.4108 51.3809 23.392 51.2413 23.317C51.0502 23.213 50.8317 23.0965 50.5932 22.9703L50.5915 22.9694C50.3243 22.8292 50.0259 22.7035 49.6956 22.5933C49.327 22.4704 48.9207 22.4136 48.4834 22.4136C47.7463 22.4136 47.0982 22.5666 46.6369 22.9649C46.1787 23.3587 45.9644 23.8919 45.9644 24.5058C45.9644 24.9339 46.1068 25.3228 46.4091 25.6307C46.663 25.8894 46.9799 26.0967 47.3461 26.2654L47.3486 26.2665C47.6983 26.4252 48.0935 26.5699 48.5323 26.6994C48.9441 26.8215 49.3658 26.956 49.7935 27.1051L49.7942 27.1054C50.212 27.2503 50.621 27.4223 51.0234 27.6177C51.3933 27.7974 51.7222 28.0295 52.0114 28.311C52.2876 28.5819 52.5166 28.9148 52.6922 29.3159C52.8576 29.6939 52.9517 30.1723 52.9517 30.7654C52.9517 31.4201 52.8368 32.0238 52.6107 32.5834C52.3846 33.1433 52.0611 33.6279 51.6356 34.0401C51.2125 34.4501 50.6846 34.7815 50.0428 35.0254C49.411 35.2656 48.6791 35.3909 47.8393 35.3909C47.3854 35.3909 46.9229 35.3451 46.4447 35.2523C45.9682 35.1595 45.5057 35.0262 45.0591 34.8564C44.6122 34.6865 44.1944 34.4851 43.8069 34.2529L43.8059 34.2523C43.5505 34.1 43.3199 33.9381 43.1131 33.767L43.951 32.4617C43.9928 32.4066 44.0496 32.3549 44.1286 32.3084C44.1931 32.2714 44.2562 32.2541 44.3349 32.2541C44.4416 32.2541 44.5689 32.286 44.7234 32.3811C44.9463 32.5183 45.1965 32.6678 45.4729 32.831C45.778 33.0111 46.1217 33.1706 46.5028 33.3134C46.9309 33.4747 47.4164 33.5467 47.9478 33.5467C48.672 33.5467 49.3104 33.39 49.7934 33.0104C50.3194 32.5988 50.534 31.9735 50.534 31.2534C50.534 30.7939 50.4043 30.3769 50.1062 30.0416C49.8505 29.7539 49.528 29.5298 49.1523 29.3568C48.7954 29.1924 48.3971 29.0554 47.9621 28.9369C47.5518 28.8252 47.1335 28.703 46.7027 28.5662C46.2887 28.434 45.8836 28.2737 45.4892 28.0831C45.1244 27.9069 44.8003 27.675 44.5151 27.386C44.241 27.1083 44.0108 26.7569 43.8332 26.3189C43.6645 25.9025 43.5684 25.3646 43.5684 24.6877C43.5684 24.1785 43.6727 23.6803 43.8837 23.1874C44.0919 22.7012 44.3978 22.2658 44.8088 21.8812L44.8097 21.8804C45.2167 21.4977 45.7212 21.1854 46.3349 20.9466C46.9334 20.7158 47.6339 20.593 48.4444 20.593C48.8983 20.593 49.3395 20.6274 49.7663 20.6976C50.1949 20.7681 50.5971 20.8702 50.974 21.0047C51.3563 21.1412 51.7117 21.3028 52.041 21.4891C52.2436 21.6037 52.4313 21.7276 52.6047 21.86Z" fill="white" stroke="#E9E9E9"/>
<path d="M78.1345 20.8925C77.9767 20.7859 77.788 20.7278 77.5947 20.7278H70.8764C70.6832 20.7278 70.4945 20.7858 70.3367 20.8924C70.3367 20.8924 70.3366 20.8924 70.3366 20.8925L69.0664 21.7524C69.0663 21.7524 69.0663 21.7524 69.0663 21.7525C69.0662 21.7525 69.0662 21.7525 69.0661 21.7525C68.8067 21.9285 68.6548 22.2154 68.6548 22.5198V33.4298C68.6548 33.7342 68.8067 34.0211 69.0661 34.1971L78.1345 20.8925ZM78.1345 20.8925L79.4047 21.7524C79.6643 21.9283 79.8163 22.2153 79.8163 22.5198V33.4298C79.8163 33.7343 79.6643 34.0213 79.4047 34.1972L78.1345 35.0571C78.1344 35.0572 78.1344 35.0572 78.1343 35.0573C77.9765 35.1638 77.7879 35.2218 77.5947 35.2218H70.8764C70.6833 35.2218 70.4947 35.1638 70.3369 35.0574C70.3369 35.0574 70.3369 35.0573 70.3369 35.0573C70.3368 35.0573 70.3367 35.0572 70.3366 35.0571L69.0664 34.1972L78.1345 20.8925ZM77.6046 32.2266L77.6068 32.2035L77.6068 32.1804L77.6133 23.8599H77.6133L77.6132 23.8536C77.6119 23.735 77.6 23.5811 77.5352 23.425C77.466 23.2586 77.3526 23.1266 77.2065 23.0251L76.9526 22.8419L76.9527 22.8418L76.9411 22.8339C76.8268 22.7562 76.6923 22.709 76.593 22.6816C76.4898 22.6532 76.3638 22.6297 76.2458 22.6297H72.2231C72.1051 22.6297 71.9791 22.6532 71.8759 22.6816C71.7766 22.709 71.6421 22.7562 71.5278 22.8339L71.5277 22.8338L71.5163 22.8419L71.2624 23.0252C71.1436 23.1078 71.0436 23.2128 70.9727 23.345C70.9025 23.4759 70.8749 23.6073 70.8643 23.7209L70.8622 23.7439L70.8621 23.7671L70.8556 32.0876H70.8556L70.8557 32.0938C70.8571 32.2125 70.8689 32.3663 70.9337 32.5224C71.0029 32.6889 71.1163 32.8208 71.2624 32.9223L71.5163 33.1055L71.5162 33.1057L71.5278 33.1135C71.6421 33.1913 71.7766 33.2385 71.8759 33.2658C71.9791 33.2943 72.1051 33.3177 72.2231 33.3177H76.2458C76.3638 33.3177 76.4898 33.2943 76.5931 33.2658C76.6923 33.2385 76.8268 33.1913 76.9411 33.1135L76.9413 33.1137L76.9526 33.1055L77.2066 32.9223C77.3254 32.8397 77.4253 32.7346 77.4962 32.6025C77.5664 32.4715 77.594 32.3401 77.6046 32.2266Z" fill="white" stroke="#E9E9E9"/>
</g>
<defs>
<linearGradient id="paint0_linear_193_1026" x1="7.80697" y1="-2.22144" x2="20.7061" y2="38.5476" gradientUnits="userSpaceOnUse">
<stop stop-color="#BE97FC"/>
<stop offset="1" stop-color="#4935C4"/>
</linearGradient>
<clipPath id="clip0_193_1026">
<rect width="150" height="36" fill="white"/>
</clipPath>
</defs>
</svg>
