<svg width="150" height="36" viewBox="0 0 150 36" fill="none" xmlns="http://www.w3.org/2000/svg">
<g clip-path="url(#clip0_193_1153)">
<path d="M11.9186 0.736117L1.99511 7.24616C0.748167 8.06152 0 9.44186 0 10.9185V25.0835C0 26.5602 0.748167 27.9341 1.99511 28.7559L11.9186 35.2616C13.4215 36.2482 15.3797 36.2482 16.8847 35.2616L26.767 28.7559C28.0075 27.9362 28.7557 26.5602 28.7557 25.0899V10.9185C28.7557 9.44186 28.0075 8.06794 26.767 7.25258L16.8782 0.742537C15.3754 -0.244028 13.4171 -0.248308 11.9121 0.742537L11.9186 0.736117ZM22.4667 25.9995L16.759 29.5177C15.7224 30.1555 14.3822 29.4236 14.3822 28.2187V17.9957L7.28433 23.2367C6.26075 23.9921 4.79911 23.273 4.79911 22.0083V12.6477C4.79911 11.5669 5.36295 10.559 6.29545 9.98543L12.0032 6.46718C13.0398 5.82945 14.38 6.56135 14.38 7.7662V17.9892L21.4778 12.7482C22.5014 11.9928 23.963 12.7119 23.963 13.9766V23.3394C23.963 24.4201 23.3992 25.4281 22.4645 26.0016L22.4667 25.9995Z" fill="url(#paint0_linear_193_1153)"/>
<path d="M81.3333 15.6823H78.5163C78.2018 15.6823 77.946 15.6096 77.7529 15.4641C77.5599 15.3185 77.4125 15.1345 77.3127 14.9076L76.3889 12.2133H70.4339L69.5101 14.9076C69.432 15.1067 69.2889 15.2843 69.085 15.4427C68.8812 15.601 68.6275 15.6823 68.3282 15.6823H65.4895L71.3794 0.661299C71.4813 0.400212 71.7372 0.226868 72.0213 0.226868H74.7971C75.0812 0.226868 75.3371 0.400212 75.439 0.661299L81.3311 15.6823H81.3333ZM75.5605 9.77365L74.1097 5.54062C74.0034 5.27098 73.8885 4.95639 73.7649 4.59044C73.6434 4.22663 73.522 3.83286 73.4006 3.40699C73.2921 3.83928 73.1794 4.23733 73.0558 4.60542C72.9321 4.97351 72.8194 5.29238 72.7109 5.55988L71.271 9.77151H75.5605V9.77365Z" fill="black"/>
<path d="M47.3123 12.8168V0.877437C47.3123 0.374524 46.7442 0.0727766 46.3191 0.353124L44.0378 1.85116C43.8144 1.99883 43.6799 2.24493 43.6799 2.5103V15.6802H52.556C52.8661 15.6802 53.1177 15.4319 53.1177 15.1259V13.3711C53.1177 13.065 52.8661 12.8168 52.556 12.8168H47.3123Z" fill="black"/>
<path d="M65.0471 2.42898V0.781142C65.0471 0.475114 64.7956 0.226868 64.4855 0.226868H57.5264C57.3724 0.239708 57.2141 0.284649 57.0688 0.380952L55.321 1.53016C55.0976 1.67782 54.9631 1.92393 54.9631 2.1893V15.6845H64.4833C64.7934 15.6845 65.045 15.4362 65.045 15.1302V13.4802C65.045 13.1742 64.7934 12.926 64.4833 12.926H58.6172V9.24506H62.9783C63.2884 9.24506 63.54 8.99681 63.54 8.69078V7.1478C63.54 6.84178 63.2884 6.59353 62.9783 6.59353H58.6172V2.98326H64.4833C64.7934 2.98326 65.045 2.73501 65.045 2.42898H65.0471Z" fill="black"/>
<path d="M109.781 22.2887V20.6387C109.781 20.3327 109.529 20.0844 109.219 20.0844H102.26C102.106 20.0973 101.948 20.1422 101.803 20.2385L100.055 21.3877C99.8315 21.5354 99.697 21.7815 99.697 22.0469V35.5421H109.217C109.527 35.5421 109.779 35.2938 109.779 34.9878V33.3378C109.779 33.0318 109.527 32.7835 109.217 32.7835H103.351V29.1026H107.712C108.022 29.1026 108.274 28.8544 108.274 28.5484V27.0054C108.274 26.6994 108.022 26.4511 107.712 26.4511H103.351V22.8451H109.217C109.527 22.8451 109.779 22.5969 109.779 22.2908L109.781 22.2887Z" fill="black"/>
<path d="M113.409 2.53385V15.6823H117.063V0.888149C117.063 0.385236 116.495 0.0834883 116.07 0.363835L113.767 1.87685C113.544 2.02452 113.409 2.27062 113.409 2.53599V2.53385Z" fill="black"/>
<path d="M95.0043 15.0703L92.0507 10.3022C91.8859 10.054 91.6994 9.84 91.4912 9.66023C91.283 9.48047 91.0618 9.33066 90.8254 9.20868C91.3329 9.01822 91.784 8.77425 92.1743 8.47678C92.5647 8.17932 92.8921 7.84119 93.1567 7.4624C93.4213 7.08361 93.6229 6.67272 93.7596 6.22759C93.8962 5.78245 93.9634 5.3095 93.9634 4.80659C93.9634 4.14959 93.8485 3.54182 93.6186 2.98326C93.3887 2.42471 93.0222 1.94106 92.517 1.53016C92.0117 1.11927 91.3589 0.800406 90.5609 0.56928C89.7628 0.338154 88.7956 0.224731 87.6636 0.224731H85.1307C84.9767 0.237572 84.8184 0.282513 84.6753 0.378815L82.9274 1.52802C82.704 1.67569 82.5696 1.92179 82.5696 2.18716V15.1045C82.5696 15.4234 82.8298 15.6802 83.1529 15.6802H85.6186C85.9418 15.6802 86.202 15.4234 86.202 15.1045V9.96198H87.1258C87.4056 9.96198 87.6203 10.0069 87.7699 10.0947C87.9195 10.1824 88.0561 10.3215 88.1776 10.5141L90.7799 15.0018C91.0445 15.4555 91.4825 15.6802 92.0919 15.6802H94.6552C94.974 15.6802 95.167 15.3378 95.0022 15.0703H95.0043ZM90.2659 6.02214C90.1662 6.31533 90.0057 6.57213 89.7824 6.79042C89.5612 7.00871 89.2749 7.18205 88.9279 7.30403C88.5809 7.42816 88.1602 7.49022 87.6658 7.49022H86.2042V2.9105H87.6658C88.6048 2.9105 89.2966 3.10097 89.7455 3.48403C90.1944 3.8671 90.4177 4.3957 90.4177 5.07624C90.4177 5.4165 90.3679 5.73323 90.2681 6.02642L90.2659 6.02214Z" fill="black"/>
<path d="M65.2402 23.104C65.3378 23.0955 65.4354 23.0677 65.5265 23.0077L66.6194 22.2887C66.7582 22.1967 66.8428 22.0426 66.8428 21.8778V20.8163C66.8428 20.5103 66.5912 20.2621 66.2811 20.2621H55.9976C55.9 20.2706 55.8024 20.2984 55.7114 20.3584L54.6184 21.0753C54.4796 21.1673 54.395 21.3214 54.395 21.4883V22.5498C54.395 22.8558 54.6466 23.104 54.9567 23.104H58.8016V35.1633C58.8016 35.4693 59.0532 35.7175 59.3633 35.7175H61.8724C62.1825 35.7175 62.434 35.4693 62.434 35.1633V23.104" fill="black"/>
<path d="M109.384 0.35099L107.532 1.56654C107.309 1.7142 107.174 1.96031 107.174 2.22568V8.40616C107.174 8.6544 107.181 8.91763 107.196 9.19584C107.209 9.47404 107.235 9.76295 107.272 10.0604L99.8206 0.776861C99.7209 0.657018 99.6298 0.560715 99.5517 0.490094C99.4737 0.419472 99.3912 0.36383 99.3045 0.325309C99.2178 0.286788 99.1223 0.258968 99.0139 0.246127C99.0074 0.246127 99.0009 0.246127 98.9944 0.246127L97.4785 1.24125L97.1229 1.47666L97.0622 1.51732C96.8388 1.66498 96.7043 1.91109 96.7043 2.17646V15.0639C96.7043 15.4063 96.9841 15.6823 97.3311 15.6823H99.2806C99.6276 15.6823 99.9074 15.4063 99.9074 15.0639V7.39605C99.9074 7.16921 99.9009 6.92738 99.89 6.66843C99.8792 6.41163 99.8597 6.14412 99.8315 5.86805L107.216 15.0874C107.402 15.3057 107.591 15.4598 107.779 15.5497C107.97 15.6374 108.204 15.6823 108.484 15.6823H109.625C110.039 15.6823 110.377 15.3506 110.377 14.9397V0.875304C110.377 0.372391 109.809 0.0706428 109.384 0.34885V0.35099Z" fill="black"/>
<path d="M132.775 0.35099L130.923 1.56654C130.699 1.7142 130.565 1.96031 130.565 2.22568V8.40616C130.565 8.6544 130.572 8.91763 130.587 9.19584C130.6 9.47404 130.626 9.76295 130.663 10.0604L123.213 0.776861C123.114 0.657018 123.023 0.560715 122.945 0.490094C122.866 0.419472 122.784 0.36383 122.697 0.325309C122.611 0.286788 122.515 0.258968 122.407 0.246127C122.4 0.246127 122.394 0.246127 122.387 0.246127L120.871 1.24125L120.516 1.47666L120.455 1.51732C120.232 1.66498 120.097 1.91109 120.097 2.17646V15.0639C120.097 15.4063 120.377 15.6823 120.724 15.6823H122.673C123.02 15.6823 123.3 15.4063 123.3 15.0639V7.39605C123.3 7.16921 123.294 6.92738 123.283 6.66843C123.272 6.41163 123.252 6.14412 123.224 5.86805L130.608 15.0874C130.795 15.3057 130.984 15.4598 131.172 15.5497C131.363 15.6374 131.597 15.6823 131.877 15.6823H133.018C133.432 15.6823 133.77 15.3506 133.77 14.9397V0.875304C133.77 0.372391 133.202 0.0706428 132.777 0.34885L132.775 0.35099Z" fill="black"/>
<path d="M95.8153 20.3883L93.9634 21.6039C93.74 21.7515 93.6055 21.9976 93.6055 22.263V28.4435C93.6055 28.6917 93.612 28.955 93.6272 29.2332C93.6402 29.5114 93.6663 29.8003 93.7031 30.0977L86.254 20.8163C86.1542 20.6965 86.0631 20.6002 85.9851 20.5296C85.907 20.4589 85.8246 20.4033 85.7378 20.3648C85.6511 20.3263 85.5557 20.2984 85.4473 20.2856C85.4407 20.2856 85.4342 20.2856 85.4277 20.2856L83.9119 21.2807L83.5562 21.5161L83.4955 21.5568C83.2721 21.7044 83.1377 21.9506 83.1377 22.2159V35.1033C83.1377 35.4457 83.4174 35.7218 83.7644 35.7218H85.714C86.061 35.7218 86.3407 35.4457 86.3407 35.1033V27.4377C86.3407 27.2108 86.3342 26.969 86.3234 26.71C86.3125 26.4532 86.293 26.1857 86.2648 25.9097L93.6489 35.129C93.8354 35.3473 94.0241 35.5014 94.2127 35.5913C94.4036 35.679 94.6378 35.7239 94.9175 35.7239H96.0582C96.4724 35.7239 96.8107 35.3922 96.8107 34.9813V20.9126C96.8107 20.4097 96.2426 20.108 95.8175 20.3862L95.8153 20.3883Z" fill="black"/>
<path d="M144.325 7.67211H149.894V14.1971C149.091 14.7771 148.237 15.1965 147.33 15.4598C146.424 15.7209 145.476 15.8514 144.487 15.8514C143.197 15.8514 142.024 15.6524 140.965 15.2522C139.909 14.852 139.003 14.2999 138.25 13.5979C137.498 12.8938 136.919 12.0592 136.509 11.0941C136.101 10.1289 135.897 9.08027 135.897 7.94818C135.897 6.81609 136.09 5.7375 136.479 4.77234C136.867 3.80717 137.42 2.97469 138.14 2.27489C138.86 1.5751 139.732 1.02938 140.753 0.642031C141.774 0.252541 142.915 0.0599365 144.177 0.0599365C144.83 0.0599365 145.441 0.113438 146.016 0.218301C146.591 0.323163 147.118 0.468687 147.601 0.652732C148.085 0.836776 148.527 1.05506 148.929 1.30973C149.33 1.56439 149.688 1.84046 150.004 2.13579L148.95 3.71729C148.785 3.96554 148.573 4.11748 148.311 4.17312C148.05 4.2309 147.768 4.1667 147.467 3.98266C147.181 3.81359 146.91 3.66593 146.656 3.54181C146.402 3.41768 146.142 3.3171 145.877 3.24006C145.613 3.16302 145.333 3.10523 145.038 3.07099C144.743 3.03675 144.416 3.01749 144.049 3.01749C143.368 3.01749 142.757 3.1352 142.21 3.37274C141.664 3.61029 141.202 3.94414 140.818 4.37429C140.434 4.80658 140.139 5.32447 139.931 5.92797C139.723 6.53146 139.619 7.20558 139.619 7.94818C139.619 8.76782 139.734 9.49758 139.964 10.1332C140.193 10.7688 140.517 11.3081 140.937 11.7468C141.358 12.1855 141.859 12.5193 142.442 12.7483C143.026 12.9773 143.674 13.0929 144.383 13.0929C144.821 13.0929 145.216 13.0501 145.572 12.9645C145.927 12.8789 146.272 12.7676 146.608 12.6263V10.2808H145.06C144.83 10.2808 144.65 10.2209 144.522 10.1011C144.394 9.98123 144.329 9.82929 144.329 9.64524V7.67211H144.325Z" fill="black"/>
<path d="M52.3327 23.4015C52.2243 23.5706 52.1115 23.699 51.9944 23.7846C51.8773 23.8702 51.7233 23.9108 51.5368 23.9108C51.372 23.9108 51.1942 23.8595 51.0033 23.7568C50.8147 23.654 50.5978 23.5385 50.3593 23.4122C50.1185 23.2859 49.8453 23.1704 49.5374 23.0677C49.2294 22.9649 48.8781 22.9136 48.4834 22.9136C47.8025 22.9136 47.295 23.057 46.9632 23.3437C46.6293 23.6305 46.4644 24.0178 46.4644 24.5058C46.4644 24.8161 46.5642 25.075 46.7659 25.2805C46.9676 25.4859 47.23 25.6614 47.5553 25.8112C47.8805 25.9589 48.2535 26.0958 48.6743 26.22C49.0928 26.3441 49.5222 26.4811 49.9581 26.633C50.3961 26.7849 50.8233 26.9647 51.2419 27.168C51.6604 27.3713 52.0334 27.6345 52.3609 27.9534C52.6862 28.2723 52.9507 28.6596 53.1502 29.1155C53.3498 29.5713 53.4517 30.1213 53.4517 30.7654C53.4517 31.4802 53.3259 32.1479 53.0743 32.7707C52.8228 33.3934 52.4606 33.937 51.9835 34.3993C51.5064 34.8615 50.9188 35.2275 50.2205 35.4928C49.5222 35.7582 48.7285 35.8909 47.8393 35.8909C47.3514 35.8909 46.857 35.8417 46.3495 35.7432C45.8442 35.6448 45.3541 35.5035 44.8814 35.3238C44.4086 35.144 43.9641 34.93 43.5499 34.6817C43.1335 34.4335 42.7713 34.1574 42.4634 33.8535L43.539 32.1779C43.6258 32.058 43.7385 31.9574 43.8773 31.8761C44.0183 31.7948 44.1679 31.7541 44.3349 31.7541C44.5496 31.7541 44.7664 31.8205 44.9855 31.9553C45.2045 32.0901 45.4517 32.2378 45.7271 32.4004C46.0025 32.5631 46.3192 32.7107 46.6791 32.8456C47.037 32.9804 47.4598 33.0467 47.9478 33.0467C48.607 33.0467 49.121 32.9034 49.4853 32.6166C49.8518 32.3298 50.034 31.8761 50.034 31.2534C50.034 30.8917 49.9342 30.6007 49.7325 30.3738C49.5309 30.147 49.2685 29.9608 48.9432 29.811C48.6179 29.6612 48.247 29.5328 47.8307 29.4193C47.4143 29.3059 46.9893 29.1818 46.5512 29.0427C46.1153 28.9036 45.6881 28.7345 45.2717 28.5334C44.8553 28.3322 44.4845 28.0668 44.1592 27.7373C43.8339 27.4077 43.5694 26.9989 43.3699 26.5067C43.1703 26.0145 43.0684 25.4089 43.0684 24.6877C43.0684 24.1077 43.1877 23.5428 43.4241 22.9906C43.6604 22.4385 44.0074 21.9463 44.4672 21.5161C44.9269 21.0838 45.4886 20.7393 46.1543 20.4803C46.8201 20.2235 47.5834 20.093 48.4444 20.093C48.9236 20.093 49.3921 20.1294 49.8475 20.2043C50.3029 20.2792 50.7344 20.3883 51.1421 20.5338C51.5498 20.6794 51.9315 20.8527 52.2871 21.0539C52.6428 21.255 52.9594 21.484 53.2392 21.7387L52.337 23.4037L52.3327 23.4015Z" fill="black"/>
<path d="M79.6852 21.3385L78.4144 20.4782C78.1737 20.3156 77.8875 20.2278 77.5947 20.2278H70.8764C70.5836 20.2278 70.2974 20.3156 70.0566 20.4782L68.7858 21.3385C68.3912 21.606 68.1548 22.0469 68.1548 22.5198V33.4298C68.1548 33.9028 68.3912 34.3436 68.7858 34.6111L70.0566 35.4714C70.2974 35.6341 70.5836 35.7218 70.8764 35.7218H77.5947C77.8875 35.7218 78.1737 35.6341 78.4144 35.4714L79.6852 34.6111C80.0799 34.3436 80.3163 33.9028 80.3163 33.4298V22.5198C80.3163 22.0469 80.0799 21.606 79.6852 21.3385ZM77.1068 32.18C77.0938 32.3191 77.0461 32.4261 76.9181 32.5139L76.66 32.7001C76.5625 32.7664 76.3629 32.8178 76.2458 32.8178H72.2231C72.106 32.8178 71.9065 32.7664 71.8089 32.7001L71.5508 32.5139C71.3947 32.4069 71.3578 32.2742 71.3556 32.088L71.3621 23.7675C71.3752 23.6284 71.4229 23.5214 71.5508 23.4336L71.8089 23.2474C71.9065 23.1811 72.106 23.1297 72.2231 23.1297H76.2458C76.3629 23.1297 76.5625 23.1811 76.66 23.2474L76.9181 23.4336C77.0742 23.5406 77.1111 23.6733 77.1133 23.8595L77.1068 32.18Z" fill="black"/>
</g>
<defs>
<linearGradient id="paint0_linear_193_1153" x1="7.80697" y1="-2.22144" x2="20.7061" y2="38.5476" gradientUnits="userSpaceOnUse">
<stop stop-color="#BE97FC"/>
<stop offset="1" stop-color="#4935C4"/>
</linearGradient>
<clipPath id="clip0_193_1153">
<rect width="150" height="36" fill="white"/>
</clipPath>
</defs>
</svg>
